<?xml version="1.0" encoding="UTF-8"?>
<svg xmlns="http://www.w3.org/2000/svg" xmlns:xlink="http://www.w3.org/1999/xlink" viewBox="0 0 512 512" width="512px" height="512px">
<g id="surface310860640">
<path style=" stroke:none;fill-rule:nonzero;fill:rgb(100%,87.450981%,30.980393%);fill-opacity:1;" d="M 256 51.199219 C 142.898438 51.199219 51.199219 142.898438 51.199219 256 C 51.199219 351.964844 117.28125 432.265625 206.371094 454.484375 C 205.414062 451.71875 204.800781 448.511719 204.800781 444.535156 L 204.800781 409.53125 C 196.488281 409.53125 182.5625 409.53125 179.0625 409.53125 C 165.050781 409.53125 152.59375 403.507812 146.550781 392.3125 C 139.84375 379.871094 138.683594 360.839844 122.0625 349.199219 C 117.128906 345.328125 120.882812 340.90625 126.566406 341.503906 C 137.0625 344.472656 145.765625 351.675781 153.957031 362.359375 C 162.117188 373.058594 165.957031 375.484375 181.195312 375.484375 C 188.585938 375.484375 199.644531 375.058594 210.054688 373.417969 C 215.65625 359.203125 225.332031 346.113281 237.160156 339.933594 C 168.960938 332.917969 136.414062 298.992188 136.414062 252.929688 C 136.414062 233.097656 144.863281 213.914062 159.214844 197.75 C 154.503906 181.707031 148.582031 148.992188 161.023438 136.535156 C 191.710938 136.535156 210.261719 156.433594 214.714844 161.808594 C 230.007812 156.570312 246.800781 153.601562 264.449219 153.601562 C 282.128906 153.601562 298.992188 156.570312 314.316406 161.84375 C 318.71875 156.5 337.289062 136.535156 368.042969 136.535156 C 380.535156 149.007812 374.546875 181.863281 369.785156 197.871094 C 384.050781 214 392.449219 233.128906 392.449219 252.929688 C 392.449219 298.957031 359.953125 332.867188 291.855469 339.917969 C 310.597656 349.695312 324.265625 377.171875 324.265625 397.875 L 324.265625 444.535156 C 324.265625 446.308594 323.875 447.589844 323.667969 449.109375 C 403.472656 421.136719 460.800781 345.359375 460.800781 256 C 460.800781 142.898438 369.101562 51.199219 256 51.199219 Z M 256 51.199219 "/>
</g>
</svg>
