<?xml version="1.0" encoding="UTF-8"?>
<svg xmlns="http://www.w3.org/2000/svg" xmlns:xlink="http://www.w3.org/1999/xlink" viewBox="0 0 512 512" width="512px" height="512px">
<g id="surface310758313">
<path style=" stroke:none;fill-rule:nonzero;fill:rgb(100%,87.450981%,30.980393%);fill-opacity:1;" d="M 153.601562 426.667969 L 68.265625 426.667969 L 68.265625 170.667969 L 153.601562 170.667969 Z M 110.949219 136.535156 C 87.347656 136.535156 68.265625 117.402344 68.265625 93.847656 C 68.265625 70.296875 87.382812 51.199219 110.949219 51.199219 C 134.46875 51.199219 153.601562 70.332031 153.601562 93.847656 C 153.601562 117.402344 134.46875 136.535156 110.949219 136.535156 Z M 460.800781 426.667969 L 378.761719 426.667969 L 378.761719 302.078125 C 378.761719 272.367188 378.199219 234.15625 336.109375 234.15625 C 293.394531 234.15625 286.824219 266.511719 286.824219 299.929688 L 286.824219 426.667969 L 204.800781 426.667969 L 204.800781 170.480469 L 283.546875 170.480469 L 283.546875 205.484375 L 284.65625 205.484375 C 295.613281 185.34375 322.390625 164.113281 362.324219 164.113281 C 445.441406 164.113281 460.800781 217.171875 460.800781 286.15625 Z M 460.800781 426.667969 "/>
</g>
</svg>
